<svg width="100" height="99" viewBox="0 0 100 99" fill="none" xmlns="http://www.w3.org/2000/svg">
<g clip-path="url(#clip0_33_70)">
<path d="M12.0656 0C10.9463 0.00125711 9.87316 0.44646 9.08168 1.23794C8.29021 2.02941 7.84501 3.10252 7.84375 4.22184V93.7285C7.84501 94.8478 8.29021 95.9209 9.08168 96.7124C9.87316 97.5038 10.9463 97.949 12.0656 97.9503H51.2495C52.3688 97.949 53.4419 97.5038 54.2334 96.7123C55.0249 95.9209 55.4701 94.8478 55.4714 93.7285V4.22184C55.4701 3.10252 55.0249 2.02941 54.2334 1.23794C53.442 0.44646 52.3688 0.00125711 51.2495 0H12.0656Z" fill="#E6E6E6"/>
<path d="M52.8598 20.711V13.5286C50.6286 13.0162 48.5281 12.0457 46.6917 10.6787C44.8553 9.31176 43.323 7.57811 42.1919 5.58771V5.58771C41.6493 5.99005 40.9913 6.2066 40.3158 6.20515H34.6125C36.1343 9.99822 38.6168 13.3301 41.8161 15.8734C45.0153 18.4166 48.8212 20.0838 52.8598 20.711V20.711Z" fill="white"/>
<path d="M52.8597 13.117V6.21691C52.8599 5.71217 52.7606 5.21235 52.5675 4.746C52.3744 4.27965 52.0914 3.85592 51.7344 3.49901C51.3775 3.14211 50.9538 2.85903 50.4875 2.66595C50.0211 2.47286 49.5213 2.37356 49.0166 2.37372H43.4793V3.03998C43.4799 3.46731 43.3937 3.8903 43.2258 4.2833C43.058 4.6763 42.8121 5.03112 42.5031 5.32623C43.5971 7.27012 45.0823 8.96606 46.8649 10.307C48.6475 11.6478 50.6887 12.6046 52.8597 13.1167V13.117Z" fill="white"/>
<path d="M26.224 6.20528H22.6578C21.8185 6.20503 21.0138 5.87145 20.4205 5.2779C19.8272 4.68436 19.4939 3.87945 19.494 3.04022V2.37396H14.2991C13.7943 2.37393 13.2945 2.47332 12.8282 2.66646C12.3619 2.85961 11.9382 3.14272 11.5813 3.49962C11.2245 3.85653 10.9414 4.28025 10.7483 4.74657C10.5552 5.21289 10.4558 5.71269 10.4559 6.21742V91.736C10.4553 92.2407 10.5544 92.7406 10.7474 93.2069C10.9404 93.6733 11.2235 94.097 11.5805 94.4538C11.9375 94.8106 12.3614 95.0934 12.8279 95.286C13.2944 95.4787 13.7943 95.5774 14.2991 95.5765H49.017C49.1754 95.5769 49.3336 95.5672 49.4907 95.5475C50.4202 95.4316 51.2755 94.9804 51.8959 94.2786C52.5163 93.5768 52.8592 92.6727 52.8602 91.736V28.7813C40.2326 27.3187 29.7111 18.3086 26.224 6.20528Z" fill="white"/>
<path d="M34.1797 6.20532H26.6411C30.1109 18.0844 40.4518 26.9224 52.8599 28.3789V21.12C48.7134 20.4861 44.8058 18.7749 41.5277 16.1577C38.2496 13.5404 35.7159 10.1086 34.1796 6.20532H34.1797Z" fill="white"/>
<path d="M50.2151 70.2911H14.5933C14.4184 70.2909 14.2508 70.2213 14.1271 70.0976C14.0034 69.974 13.9339 69.8063 13.9337 69.6314V60.7952C13.9339 60.6203 14.0034 60.4527 14.1271 60.329C14.2508 60.2053 14.4184 60.1358 14.5933 60.1356H50.2151C50.39 60.1358 50.5576 60.2053 50.6813 60.329C50.805 60.4527 50.8745 60.6203 50.8748 60.7952V69.6316C50.8745 69.8064 50.8049 69.9741 50.6813 70.0977C50.5576 70.2213 50.39 70.2909 50.2151 70.2911ZM14.5933 60.3993C14.4883 60.3993 14.3877 60.441 14.3134 60.5152C14.2392 60.5894 14.1975 60.6901 14.1975 60.7951V69.6314C14.1975 69.7364 14.2392 69.8371 14.3134 69.9113C14.3877 69.9855 14.4883 70.0272 14.5933 70.0272H50.2151C50.3201 70.0272 50.4207 69.9855 50.495 69.9113C50.5692 69.8371 50.6109 69.7364 50.6109 69.6314V60.7952C50.6109 60.6903 50.5692 60.5896 50.495 60.5153C50.4207 60.4411 50.3201 60.3994 50.2151 60.3994L14.5933 60.3993Z" fill="#E6E6E6"/>
<path d="M19.2108 67.9838C20.741 67.9838 21.9814 66.7434 21.9814 65.2133C21.9814 63.6831 20.741 62.4427 19.2108 62.4427C17.6807 62.4427 16.4402 63.6831 16.4402 65.2133C16.4402 66.7434 17.6807 67.9838 19.2108 67.9838Z" fill="#3F3D56"/>
<path d="M25.6095 63.3662C25.4871 63.3662 25.3696 63.4149 25.283 63.5015C25.1964 63.5881 25.1478 63.7055 25.1478 63.828C25.1478 63.9504 25.1964 64.0679 25.283 64.1545C25.3696 64.2411 25.4871 64.2897 25.6095 64.2897H47.3784C47.5008 64.2897 47.6183 64.2411 47.7049 64.1545C47.7915 64.0679 47.8401 63.9504 47.8401 63.828C47.8401 63.7055 47.7915 63.5881 47.7049 63.5015C47.6183 63.4149 47.5008 63.3662 47.3784 63.3662H25.6095Z" fill="#E6E6E6"/>
<path d="M25.6095 66.1368C25.4871 66.1368 25.3696 66.1854 25.283 66.272C25.1964 66.3586 25.1478 66.4761 25.1478 66.5985C25.1478 66.721 25.1964 66.8385 25.283 66.9251C25.3696 67.0117 25.4871 67.0603 25.6095 67.0603H47.3784C47.5008 67.0603 47.6183 67.0117 47.7049 66.9251C47.7915 66.8385 47.8401 66.721 47.8401 66.5985C47.8401 66.4761 47.7915 66.3586 47.7049 66.272C47.6183 66.1854 47.5008 66.1368 47.3784 66.1368H25.6095Z" fill="#E6E6E6"/>
<path d="M50.2151 85.0675H14.5933C14.4184 85.0673 14.2508 84.9977 14.1271 84.874C14.0034 84.7504 13.9339 84.5827 13.9337 84.4078V75.5716C13.9339 75.3968 14.0034 75.2291 14.1271 75.1054C14.2508 74.9818 14.4184 74.9122 14.5933 74.912H50.2151C50.39 74.9122 50.5576 74.9818 50.6813 75.1054C50.805 75.2291 50.8745 75.3968 50.8748 75.5716V84.408C50.8745 84.5828 50.8049 84.7505 50.6813 84.8741C50.5576 84.9977 50.39 85.0673 50.2151 85.0675V85.0675ZM14.5933 75.1757C14.4883 75.1757 14.3877 75.2174 14.3134 75.2916C14.2392 75.3659 14.1975 75.4665 14.1975 75.5715V84.4078C14.1975 84.5128 14.2392 84.6135 14.3134 84.6877C14.3877 84.7619 14.4883 84.8036 14.5933 84.8036H50.2151C50.3201 84.8036 50.4207 84.7619 50.495 84.6877C50.5692 84.6135 50.6109 84.5128 50.6109 84.4078V75.5716C50.6109 75.4667 50.5692 75.366 50.495 75.2918C50.4207 75.2175 50.3201 75.1759 50.2151 75.1759L14.5933 75.1757Z" fill="#E6E6E6"/>
<path d="M19.2108 82.7603C20.741 82.7603 21.9814 81.5199 21.9814 79.9897C21.9814 78.4595 20.741 77.2191 19.2108 77.2191C17.6807 77.2191 16.4402 78.4595 16.4402 79.9897C16.4402 81.5199 17.6807 82.7603 19.2108 82.7603Z" fill="#3F3D56"/>
<path d="M25.6095 78.1426C25.4871 78.1426 25.3696 78.1913 25.283 78.2779C25.1964 78.3645 25.1478 78.4819 25.1478 78.6044C25.1478 78.7269 25.1964 78.8443 25.283 78.9309C25.3696 79.0175 25.4871 79.0662 25.6095 79.0662H47.3784C47.5008 79.0662 47.6183 79.0175 47.7049 78.9309C47.7915 78.8443 47.8401 78.7269 47.8401 78.6044C47.8401 78.4819 47.7915 78.3645 47.7049 78.2779C47.6183 78.1913 47.5008 78.1426 47.3784 78.1426H25.6095Z" fill="#E6E6E6"/>
<path d="M25.6095 80.9132C25.4871 80.9132 25.3696 80.9619 25.283 81.0485C25.1964 81.1351 25.1478 81.2525 25.1478 81.375C25.1478 81.4974 25.1964 81.6149 25.283 81.7015C25.3696 81.7881 25.4871 81.8367 25.6095 81.8367H47.3784C47.5008 81.8367 47.6183 81.7881 47.7049 81.7015C47.7915 81.6149 47.8401 81.4974 47.8401 81.375C47.8401 81.2525 47.7915 81.1351 47.7049 81.0485C47.6183 80.9619 47.5008 80.9132 47.3784 80.9132H25.6095Z" fill="#E6E6E6"/>
<path d="M31.6544 51.9814C30.0083 51.982 28.3782 51.6583 26.8572 51.0287C25.3363 50.3991 23.9543 49.4759 22.7903 48.3119C21.6263 47.1479 20.7031 45.7659 20.0735 44.245C19.4439 42.724 19.1202 41.0939 19.1209 39.4478C19.1209 39.4214 19.1209 39.3939 19.1224 39.3677C19.1608 32.5039 24.7823 26.9142 31.6544 26.9142C33.3004 26.9142 34.9302 27.2384 36.4508 27.8682C37.9715 28.4981 39.3532 29.4213 40.517 30.5852C41.6809 31.749 42.6041 33.1307 43.234 34.6514C43.8638 36.172 44.188 37.8018 44.188 39.4478C44.188 41.0937 43.8638 42.7235 43.234 44.2442C42.6041 45.7648 41.6809 47.1465 40.517 48.3104C39.3532 49.4742 37.9715 50.3974 36.4508 51.0273C34.9302 51.6572 33.3004 51.9814 31.6544 51.9814V51.9814ZM31.6544 27.178C28.415 27.1852 25.3094 28.4705 23.0122 30.7545C20.715 33.0385 19.4119 36.1367 19.386 39.376C19.3846 39.404 19.3847 39.4265 19.3847 39.4478C19.3844 41.8749 20.1039 44.2477 21.4521 46.2659C22.8004 48.2842 24.7169 49.8573 26.9593 50.7863C29.2016 51.7152 31.6691 51.9584 34.0496 51.4849C36.4302 51.0115 38.6169 49.8427 40.3331 48.1265C42.0494 46.4102 43.2182 44.2235 43.6916 41.843C44.1651 39.4624 43.9219 36.995 42.9929 34.7526C42.0639 32.5102 40.4909 30.5937 38.4726 29.2455C36.4544 27.8972 34.0816 27.1777 31.6544 27.178V27.178Z" fill="#3F3D56"/>
<path d="M37.3305 39.1586L28.752 34.2057C28.7119 34.1826 28.6664 34.1704 28.6201 34.1704C28.5737 34.1704 28.5282 34.1826 28.4881 34.2057C28.448 34.2289 28.4147 34.2622 28.3916 34.3023C28.3684 34.3424 28.3562 34.3879 28.3562 34.4342V44.3397C28.3562 44.386 28.3684 44.4315 28.3916 44.4716C28.4147 44.5118 28.448 44.5451 28.4881 44.5682C28.5282 44.5914 28.5737 44.6036 28.6201 44.6036C28.6664 44.6036 28.7119 44.5914 28.752 44.5682L37.3305 39.6153C37.3706 39.5922 37.4039 39.5589 37.4271 39.5188C37.4502 39.4787 37.4624 39.4332 37.4624 39.3868C37.4624 39.3405 37.4502 39.295 37.4271 39.2549C37.4039 39.2148 37.3706 39.1815 37.3305 39.1583L28.752 34.2055C28.7119 34.1823 28.6664 34.1701 28.6201 34.1701C28.5737 34.1701 28.5282 34.1823 28.4881 34.2055C28.448 34.2286 28.4147 34.2619 28.3916 34.302C28.3684 34.3421 28.3562 34.3876 28.3562 34.434V44.3397C28.3562 44.386 28.3684 44.4315 28.3916 44.4716C28.4147 44.5118 28.448 44.5451 28.4881 44.5682C28.5282 44.5914 28.5737 44.6036 28.6201 44.6036C28.6664 44.6036 28.7119 44.5914 28.752 44.5682L37.3305 39.6153C37.3706 39.5922 37.4039 39.5589 37.4271 39.5188C37.4502 39.4787 37.4624 39.4332 37.4624 39.3868C37.4624 39.3405 37.4502 39.295 37.4271 39.2549C37.4039 39.2148 37.3706 39.1815 37.3305 39.1583V39.1586Z" fill="#4A87D6"/>
<path d="M99.9479 98.1223H0V97.8346H100L99.9479 98.1223Z" fill="#3F3D56"/>
<path d="M77.9296 48.2967C79.9651 48.2967 81.6152 46.6466 81.6152 44.611C81.6152 42.5755 79.9651 40.9254 77.9296 40.9254C75.894 40.9254 74.2439 42.5755 74.2439 44.611C74.2439 46.6466 75.894 48.2967 77.9296 48.2967Z" fill="#FFB8B8"/>
<path d="M77.6913 65.2734C77.6202 65.0519 77.5966 64.8179 77.6222 64.5866C77.6478 64.3554 77.722 64.1322 77.84 63.9316C77.9579 63.7311 78.1168 63.5577 78.3065 63.4229C78.4961 63.2881 78.712 63.1948 78.9402 63.1493C79.0125 63.1354 79.0857 63.1266 79.1592 63.1229L83.0416 56.8919L79.4958 53.5202C79.3586 53.3918 79.2483 53.2375 79.1714 53.066C79.0945 52.8946 79.0525 52.7096 79.0479 52.5218C79.0432 52.3339 79.076 52.1471 79.1443 51.9721C79.2126 51.797 79.3151 51.6374 79.4458 51.5024C79.5765 51.3674 79.7327 51.2597 79.9054 51.1857C80.0781 51.1117 80.2638 51.0729 80.4517 51.0714C80.6395 51.0699 80.8258 51.1059 80.9997 51.1771C81.1735 51.2484 81.3314 51.3535 81.4642 51.4865L86.3606 56.3152L86.3705 56.3272C86.5219 56.5577 86.5951 56.8308 86.579 57.1061C86.5629 57.3815 86.4585 57.6442 86.2813 57.8555L80.8415 64.2884C80.8577 64.34 80.8712 64.3924 80.882 64.4454C80.9275 64.6735 80.9242 64.9087 80.8725 65.1355C80.8208 65.3623 80.7217 65.5755 80.5818 65.7614C80.4419 65.9472 80.2643 66.1014 80.0606 66.2138C79.857 66.3262 79.6319 66.3943 79.4001 66.4136C79.3532 66.4177 79.3066 66.4198 79.2603 66.4198C78.9113 66.4184 78.5717 66.3068 78.29 66.1009C78.0083 65.895 77.7987 65.6054 77.6913 65.2734V65.2734Z" fill="#FFB8B8"/>
<path d="M71.8594 95.9061H70.0196L69.1445 88.81H71.8596L71.8594 95.9061Z" fill="#FFB8B8"/>
<path d="M72.4034 97.7647H66.3214V97.6139C66.3214 97.3008 66.383 96.9908 66.5028 96.7016C66.6226 96.4123 66.7982 96.1495 67.0196 95.9282C67.241 95.7068 67.5038 95.5312 67.7931 95.4114C68.0823 95.2916 68.3923 95.23 68.7054 95.23H72.4036L72.4034 97.7647Z" fill="#2F2E41"/>
<path d="M90.145 93.3626L88.5642 94.3039L84.1818 88.6546L86.515 87.2654L90.145 93.3626Z" fill="#FFB8B8"/>
<path d="M86.3375 97.7925L86.2607 97.6636C85.9373 97.1203 85.8429 96.4708 85.9983 95.858C86.1537 95.2451 86.5461 94.7191 87.0894 94.3956L90.267 92.5035L91.5634 94.6804L86.3375 97.7925Z" fill="#2F2E41"/>
<path d="M68.9122 92.7812C67.6798 78.2694 66.9464 64.7881 71.4519 59.2886L71.4867 59.246L79.0686 62.2788L79.0812 62.3059C79.1068 62.3616 81.6283 67.9081 81.0401 71.6389L82.9103 80.2417L89.008 90.4521C89.0571 90.5343 89.0882 90.626 89.0991 90.7211C89.1101 90.8162 89.1007 90.9125 89.0716 91.0038C89.0425 91.095 88.9943 91.1789 88.9303 91.2501C88.8663 91.3213 88.7879 91.3781 88.7003 91.4166L86.0503 92.5825C85.9007 92.6476 85.7328 92.6566 85.5771 92.608C85.4215 92.5593 85.2886 92.4563 85.2027 92.3176L78.5695 81.501L74.8227 73.2047C74.8023 73.1596 74.7677 73.1225 74.7242 73.099C74.6807 73.0755 74.6306 73.0671 74.5818 73.0749C74.533 73.0828 74.4881 73.1065 74.4541 73.1424C74.42 73.1783 74.3988 73.2244 74.3936 73.2736L72.317 92.796C72.2996 92.9619 72.2214 93.1154 72.0974 93.227C71.9733 93.3385 71.8124 93.4001 71.6456 93.3998H69.5853C69.4163 93.3989 69.2537 93.3349 69.1293 93.2206C69.0048 93.1062 68.9274 92.9496 68.9122 92.7812V92.7812Z" fill="#2F2E41"/>
<path d="M71.4776 59.4036L71.4414 59.3863L71.4357 59.3467C71.1525 57.3644 71.4877 55.1618 72.4321 52.8002C72.8976 51.6445 73.7629 50.6944 74.8702 50.1231C75.9774 49.5517 77.2531 49.3971 78.4648 49.6874V49.6874C79.1628 49.8594 79.8175 50.1745 80.3873 50.6127C80.9572 51.0509 81.4298 51.6027 81.7753 52.2331C82.1163 52.857 82.3241 53.545 82.3854 54.2534C82.4467 54.9618 82.3603 55.6752 82.1315 56.3484C80.9409 59.8299 79.3965 63.0873 79.381 63.1197L79.3486 63.1877L71.4776 59.4036Z" fill="#4A87D6"/>
<path d="M66.022 67.6247C65.9698 67.2243 66.0631 66.8185 66.2849 66.4811C66.5067 66.1437 66.8423 65.8971 67.2305 65.7862L74.3205 52.1746C74.4115 52.0175 74.5332 51.8801 74.6782 51.7708C74.8233 51.6614 74.9888 51.5823 75.1649 51.538C75.3411 51.4937 75.5244 51.4851 75.7039 51.5129C75.8834 51.5407 76.0555 51.6041 76.2101 51.6995C76.3647 51.795 76.4986 51.9204 76.6038 52.0685C76.7091 52.2165 76.7836 52.3842 76.8229 52.5615C76.8623 52.7388 76.8657 52.9223 76.8329 53.1009C76.8001 53.2796 76.7319 53.4499 76.6322 53.6017L69.3747 67.1184C69.3898 67.2007 69.3986 67.2839 69.4011 67.3675C69.4073 67.5961 69.3672 67.8236 69.2833 68.0363C69.1993 68.2489 69.0733 68.4425 68.9127 68.6052C68.7521 68.768 68.5602 68.8966 68.3487 68.9834C68.1371 69.0701 67.9102 69.1132 67.6816 69.1101V69.1101C67.4309 69.1065 67.1842 69.0474 66.959 68.9372C66.7339 68.8269 66.5359 68.6681 66.3794 68.4723C66.1834 68.2287 66.0593 67.9351 66.0213 67.6247H66.022Z" fill="#FFB8B8"/>
<path d="M73.4608 42.529H79.3131V39.978C78.0286 39.4677 76.7716 39.0336 76.0118 39.978C75.3352 39.978 74.6864 40.2468 74.2079 40.7252C73.7295 41.2036 73.4608 41.8525 73.4608 42.529Z" fill="#2F2E41"/>
<path d="M79.6372 39.5278C83.1359 39.5278 84.1151 43.9133 84.1151 46.3874C84.1151 47.7671 83.4912 48.2608 82.5105 48.4276L82.1642 46.5805L81.3532 48.5068C81.0777 48.5081 80.7884 48.5028 80.4884 48.4973L80.2134 47.931L79.6002 48.4871C77.1442 48.4908 75.1592 48.8487 75.1592 46.3871C75.1592 43.9134 76.0181 39.5278 79.6372 39.5278Z" fill="#2F2E41"/>
<path d="M78.5946 43.1414V39.7287C78.5946 39.6883 78.5867 39.6483 78.5712 39.6109C78.5557 39.5736 78.5331 39.5396 78.5045 39.5111C78.4759 39.4825 78.442 39.4598 78.4046 39.4443C78.3673 39.4289 78.3273 39.4209 78.2868 39.4209H77.6712C77.6308 39.4209 77.5908 39.4289 77.5535 39.4443C77.5161 39.4598 77.4822 39.4825 77.4536 39.5111C77.425 39.5396 77.4023 39.5736 77.3869 39.6109C77.3714 39.6483 77.3634 39.6883 77.3634 39.7287V42.9356C76.9083 43.0095 76.4942 43.2426 76.195 43.5935C75.8957 43.9443 75.7309 44.3901 75.7298 44.8512C75.7287 45.3123 75.8915 45.7588 76.189 46.1111C76.4866 46.4633 76.8996 46.6985 77.3544 46.7745C77.8092 46.8505 78.2762 46.7625 78.6722 46.5262C79.0681 46.2899 79.3672 45.9206 79.5162 45.4842C79.6652 45.0478 79.6543 44.5727 79.4854 44.1436C79.3166 43.7145 79.0009 43.3593 78.5945 43.1414H78.5946Z" fill="#4A87D6"/>
<path d="M77.7739 45.7813C78.2838 45.7813 78.6971 45.368 78.6971 44.8581C78.6971 44.3482 78.2838 43.9348 77.7739 43.9348C77.264 43.9348 76.8506 44.3482 76.8506 44.8581C76.8506 45.368 77.264 45.7813 77.7739 45.7813Z" fill="white"/>
</g>
<defs>
<clipPath id="clip0_33_70">
<rect width="100" height="98.1223" fill="white"/>
</clipPath>
</defs>
</svg>
