<svg width="200" height="225" viewBox="0 0 200 225" fill="none" xmlns="http://www.w3.org/2000/svg">
<g clip-path="url(#clip0_12_204)">
<path d="M111.765 53.2655H110.534V19.527C110.534 14.3481 108.476 9.38133 104.814 5.71932C101.152 2.0573 96.1856 -1.09468e-06 91.0067 -7.62933e-06H19.527C16.9627 -1.41006e-05 14.4235 0.505059 12.0543 1.48637C9.68523 2.46769 7.53259 3.90603 5.71934 5.71927C3.90609 7.53251 2.46774 9.68514 1.48642 12.0543C0.505091 14.4234 5.66236e-06 16.9626 0 19.5269V204.619C-2.42672e-06 207.184 0.505069 209.723 1.48639 212.092C2.46771 214.461 3.90606 216.614 5.7193 218.427C7.53255 220.24 9.68518 221.678 12.0543 222.66C14.4234 223.641 16.9626 224.146 19.5269 224.146H91.0066C96.1855 224.146 101.152 222.089 104.814 218.427C108.476 214.765 110.534 209.798 110.534 204.619V77.2812H111.765V53.2655Z" fill="#E6E6E6"/>
<path d="M91.7946 5.08024H82.4641C82.8932 6.13222 83.057 7.27357 82.9411 8.40376C82.8252 9.53394 82.4331 10.6183 81.7994 11.5612C81.1656 12.5042 80.3098 13.2768 79.3071 13.8111C78.3044 14.3454 77.1858 14.6248 76.0497 14.6249H35.0999C33.9638 14.6248 32.8451 14.3454 31.8424 13.8111C30.8398 13.2768 29.9839 12.5042 29.3502 11.5612C28.7164 10.6183 28.3244 9.53393 28.2084 8.40374C28.0925 7.27355 28.2563 6.13219 28.6854 5.08022H19.9707C16.1032 5.08021 12.3941 6.61658 9.65931 9.35133C6.92456 12.0861 5.38819 15.7952 5.38818 19.6627V204.483C5.38818 208.351 6.92455 212.06 9.6593 214.795C12.394 217.53 16.1032 219.066 19.9707 219.066H91.7946C93.7096 219.066 95.6059 218.689 97.3751 217.956C99.1443 217.223 100.752 216.149 102.106 214.795C103.46 213.441 104.534 211.833 105.267 210.064C106 208.295 106.377 206.399 106.377 204.484V19.6627C106.377 17.7477 106 15.8515 105.267 14.0822C104.534 12.313 103.46 10.7055 102.106 9.35134C100.752 7.99723 99.1443 6.9231 97.3751 6.19026C95.6059 5.45742 93.7096 5.08024 91.7946 5.08024Z" fill="white"/>
<path d="M100.45 185.965H14.3313C13.9085 185.965 13.5032 185.797 13.2042 185.498C12.9052 185.199 12.7371 184.793 12.7366 184.371V163.008C12.7371 162.585 12.9052 162.18 13.2042 161.881C13.5032 161.582 13.9085 161.414 14.3313 161.413H100.45C100.873 161.414 101.279 161.582 101.577 161.881C101.876 162.18 102.045 162.585 102.045 163.008V184.371C102.045 184.794 101.876 185.199 101.577 185.498C101.278 185.797 100.873 185.965 100.45 185.965ZM14.3313 162.051C14.0776 162.052 13.8344 162.152 13.655 162.332C13.4756 162.511 13.3747 162.755 13.3744 163.008V184.371C13.3747 184.625 13.4756 184.868 13.655 185.047C13.8344 185.227 14.0776 185.328 14.3313 185.328H100.45C100.704 185.328 100.947 185.227 101.127 185.047C101.306 184.868 101.407 184.625 101.407 184.371V163.008C101.407 162.755 101.306 162.511 101.127 162.332C100.947 162.152 100.704 162.052 100.45 162.051H14.3313Z" fill="#E6E6E6"/>
<path d="M25.4947 180.387C29.194 180.387 32.1928 177.389 32.1928 173.689C32.1928 169.99 29.194 166.991 25.4947 166.991C21.7955 166.991 18.7966 169.99 18.7966 173.689C18.7966 177.389 21.7955 180.387 25.4947 180.387Z" fill="#E6E6E6"/>
<path d="M40.9644 169.224C40.6715 169.229 40.3923 169.349 40.1869 169.558C39.9816 169.766 39.8665 170.047 39.8665 170.34C39.8665 170.633 39.9816 170.914 40.1869 171.123C40.3923 171.332 40.6715 171.452 40.9644 171.457H93.5926C93.8881 171.461 94.1733 171.347 94.3855 171.142C94.5976 170.936 94.7195 170.654 94.7244 170.359C94.7292 170.063 94.6166 169.778 94.4114 169.565C94.2061 169.352 93.9248 169.23 93.6292 169.224C93.617 169.224 93.6048 169.224 93.5926 169.224H40.9644Z" fill="#E6E6E6"/>
<path d="M40.9644 175.922C40.6715 175.927 40.3923 176.047 40.1869 176.256C39.9816 176.464 39.8665 176.746 39.8665 177.038C39.8665 177.331 39.9816 177.613 40.1869 177.821C40.3923 178.03 40.6715 178.15 40.9644 178.155H93.5926C93.8881 178.159 94.1733 178.046 94.3855 177.84C94.5976 177.634 94.7195 177.352 94.7244 177.057C94.7292 176.761 94.6166 176.476 94.4114 176.263C94.2061 176.05 93.9248 175.928 93.6292 175.922C93.617 175.922 93.6048 175.922 93.5926 175.922H40.9644Z" fill="#E6E6E6"/>
<path d="M55.5786 105.912C47.5456 105.915 39.8403 102.727 34.1578 97.0494C28.4752 91.3717 25.2809 83.669 25.2776 75.636V75.6108C25.2776 75.5473 25.2776 75.4805 25.2813 75.417C25.3737 58.823 38.9658 45.3095 55.5786 45.3095C63.6149 45.3085 71.3225 48.5001 77.0056 54.182C82.6888 59.8639 85.8821 67.5707 85.883 75.607C85.884 83.6433 82.6924 91.3509 77.0105 97.0341C71.3286 102.717 63.6218 105.911 55.5855 105.911H55.5786V105.912ZM55.5786 45.9467C47.7472 45.9642 40.2391 49.0714 34.6856 54.5931C29.1321 60.1148 25.9819 67.605 25.9194 75.4361C25.916 75.5039 25.916 75.5593 25.916 75.6098C25.9153 81.4774 27.6545 87.2134 30.9138 92.0925C34.173 96.9716 38.8058 100.775 44.2265 103.021C49.6471 105.267 55.612 105.855 61.367 104.711C67.1219 103.567 72.4084 100.742 76.5579 96.5938C80.7074 92.4453 83.5336 87.1595 84.679 81.4049C85.8244 75.6502 85.2377 69.6851 82.9929 64.2639C80.7482 58.8428 76.9463 54.209 72.068 50.9485C67.1897 47.6881 61.4542 45.9474 55.5866 45.9467H55.5786Z" fill="#E6E6E6"/>
<path d="M97.0509 142.549C103.855 142.549 109.37 137.034 109.37 130.23C109.37 123.426 103.855 117.91 97.0509 117.91C90.2471 117.91 84.7314 123.426 84.7314 130.23C84.7314 137.034 90.2471 142.549 97.0509 142.549Z" fill="white"/>
<path d="M200 223.396H100.202V224.087H200V223.396Z" fill="#3F3D56"/>
<path d="M106.351 164.998C106.273 164.876 106.208 164.746 106.157 164.61L104.567 160.352C104.382 159.855 104.401 159.304 104.622 158.821C104.842 158.338 105.245 157.963 105.742 157.776L141.235 144.523C141.732 144.338 142.283 144.357 142.766 144.578C143.249 144.798 143.624 145.201 143.811 145.698L145.401 149.957C145.493 150.203 145.535 150.465 145.526 150.728C145.517 150.99 145.456 151.249 145.347 151.488C145.238 151.727 145.082 151.942 144.89 152.122C144.698 152.301 144.472 152.44 144.226 152.532L108.733 165.786C108.305 165.945 107.836 165.954 107.403 165.811C106.97 165.667 106.599 165.381 106.351 164.998Z" fill="#4A87D6"/>
<path d="M141.122 143.423L126.689 149.178C126.234 149.315 125.849 149.621 125.615 150.034C125.38 150.447 125.313 150.935 125.428 151.395L127.103 158.102C127.169 158.367 127.293 158.614 127.466 158.825C127.639 159.036 127.857 159.207 128.104 159.324C128.35 159.441 128.62 159.502 128.893 159.502C129.166 159.502 129.436 159.442 129.683 159.326L144.156 152.514C144.614 152.342 144.986 151.995 145.19 151.55C145.393 151.104 145.412 150.596 145.241 150.137L143.502 144.508C143.33 144.049 142.983 143.677 142.536 143.473C142.09 143.27 141.582 143.251 141.122 143.423Z" fill="#2F2E41"/>
<path d="M167.535 185.205C167.082 185.257 166.625 185.153 166.239 184.909C165.853 184.666 165.562 184.299 165.413 183.868L153.058 148.052C152.972 147.804 152.937 147.541 152.952 147.278C152.968 147.016 153.036 146.759 153.151 146.523C153.266 146.287 153.426 146.075 153.623 145.901C153.82 145.727 154.049 145.593 154.298 145.507L158.595 144.025C159.097 143.852 159.647 143.885 160.124 144.118C160.601 144.35 160.967 144.763 161.14 145.264L173.495 181.08C173.667 181.582 173.634 182.132 173.401 182.609C173.169 183.086 172.757 183.452 172.255 183.625L167.958 185.108C167.821 185.155 167.679 185.188 167.535 185.205Z" fill="#4A87D6"/>
<path d="M162.061 144.651L166.803 159.449C166.987 159.887 166.995 160.379 166.826 160.822C166.656 161.266 166.323 161.628 165.894 161.832L159.654 164.806C159.408 164.924 159.138 164.985 158.865 164.986C158.592 164.987 158.322 164.927 158.075 164.811C157.828 164.696 157.609 164.526 157.435 164.316C157.261 164.106 157.136 163.859 157.068 163.595L153.117 148.094C152.958 147.631 152.989 147.124 153.203 146.683C153.417 146.243 153.797 145.905 154.26 145.745L159.71 143.506C160.173 143.347 160.681 143.378 161.122 143.592C161.563 143.807 161.901 144.188 162.061 144.651Z" fill="#2F2E41"/>
<path d="M147.704 223.6H143.159C142.628 223.599 142.119 223.388 141.744 223.013C141.368 222.637 141.157 222.128 141.157 221.598V183.711C141.157 183.18 141.368 182.671 141.744 182.296C142.119 181.921 142.628 181.709 143.159 181.709H147.704C148.235 181.709 148.744 181.921 149.119 182.296C149.495 182.671 149.706 183.18 149.706 183.711V221.598C149.706 222.128 149.495 222.637 149.119 223.013C148.744 223.388 148.235 223.599 147.704 223.6Z" fill="#2F2E41"/>
<path d="M156.695 223.6H152.149C151.619 223.599 151.11 223.388 150.734 223.013C150.359 222.637 150.148 222.128 150.147 221.598V183.711C150.148 183.18 150.359 182.671 150.734 182.296C151.11 181.921 151.619 181.709 152.149 181.709H156.695C157.226 181.709 157.735 181.921 158.11 182.296C158.485 182.671 158.696 183.18 158.697 183.711V221.598C158.696 222.128 158.485 222.637 158.11 223.013C157.735 223.388 157.226 223.599 156.695 223.6Z" fill="#2F2E41"/>
<path d="M160.441 188.165H139.787C139.215 188.164 138.667 187.937 138.263 187.533C137.859 187.129 137.632 186.581 137.631 186.009V152.456C137.631 149.145 138.946 145.97 141.287 143.629C143.628 141.288 146.803 139.972 150.114 139.972C153.425 139.972 156.6 141.288 158.941 143.629C161.282 145.97 162.597 149.145 162.597 152.456V186.009C162.597 186.581 162.369 187.129 161.965 187.533C161.561 187.937 161.013 188.164 160.441 188.165Z" fill="#CCCCCC"/>
<path d="M163.55 196.373H153.079V137.191L153.273 137.244C156.223 138.054 158.825 139.809 160.681 142.239C162.537 144.669 163.545 147.641 163.55 150.7V196.373Z" fill="#2F2E41"/>
<path d="M146.298 196.373H135.827V150.7C135.832 147.641 136.84 144.669 138.696 142.239C140.553 139.809 143.155 138.054 146.104 137.244L146.298 137.191V196.373Z" fill="#2F2E41"/>
<path d="M149.958 133.032C159.061 133.032 166.441 125.652 166.441 116.549C166.441 107.445 159.061 100.065 149.958 100.065C140.855 100.065 133.475 107.445 133.475 116.549C133.475 125.652 140.855 133.032 149.958 133.032Z" fill="#4A87D6"/>
<path d="M168.594 112.754C168.594 112.754 169.518 87.1908 157.506 95.5065C157.506 95.5065 150.576 72.2535 133.637 107.056L128.709 111.984C128.709 111.984 150.884 108.904 171.519 118.451L168.594 112.754Z" fill="#2F2E41"/>
<path d="M144.743 114.833H141.425V115.449H144.743V114.833Z" fill="#2F2E41"/>
<path d="M155.214 114.833H151.897V115.449H155.214V114.833Z" fill="#2F2E41"/>
<path d="M113.207 166.57C112.763 166.776 112.254 166.797 111.794 166.628C111.334 166.46 110.959 166.116 110.753 165.671L100.124 142.762C99.918 142.317 99.8968 141.809 100.065 141.349C100.234 140.888 100.578 140.514 101.023 140.308C101.467 140.102 101.976 140.08 102.436 140.249C102.896 140.417 103.27 140.762 103.477 141.206L114.106 164.116C114.312 164.56 114.333 165.068 114.165 165.529C113.996 165.989 113.652 166.363 113.207 166.57Z" fill="#3F3D56"/>
<path d="M102.578 143.66C99.9259 144.891 96.9682 145.307 94.0792 144.857C91.1903 144.406 88.4997 143.11 86.3478 141.13C84.1959 139.151 82.6794 136.577 81.9899 133.736C81.3004 130.894 81.469 127.912 82.4743 125.167C83.4797 122.421 85.2766 120.035 87.6379 118.311C89.9991 116.587 92.8187 115.601 95.7401 115.479C98.6614 115.357 101.553 116.105 104.05 117.626C106.547 119.148 108.536 121.376 109.767 124.028C111.412 127.585 111.58 131.65 110.232 135.331C108.884 139.011 106.132 142.007 102.578 143.66ZM91.69 120.192C89.7008 121.115 88.0299 122.607 86.8886 124.48C85.7474 126.352 85.1871 128.521 85.2785 130.712C85.3699 132.903 86.109 135.018 87.4022 136.789C88.6955 138.56 90.4849 139.907 92.5441 140.661C94.6033 141.415 96.8398 141.542 98.9709 141.025C101.102 140.508 103.032 139.37 104.516 137.756C106.001 136.142 106.974 134.124 107.312 131.958C107.649 129.791 107.337 127.573 106.414 125.583C105.174 122.918 102.927 120.854 100.167 119.843C97.4065 118.832 94.358 118.958 91.69 120.192Z" fill="#3F3D56"/>
</g>
<defs>
<clipPath id="clip0_12_204">
<rect width="200" height="224.146" fill="white"/>
</clipPath>
</defs>
</svg>
