<svg width="28" height="28" viewBox="0 0 28 28" fill="none" xmlns="http://www.w3.org/2000/svg">
<path d="M14 16.3333C15.9367 16.3333 17.4883 14.77 17.4883 12.8333L17.5 5.83334C17.5 3.89668 15.9367 2.33334 14 2.33334C12.0633 2.33334 10.5 3.89668 10.5 5.83334V12.8333C10.5 14.77 12.0633 16.3333 14 16.3333ZM12.6 5.71668C12.6 4.94668 13.23 4.31668 14 4.31668C14.77 4.31668 15.4 4.94668 15.4 5.71668L15.3883 12.95C15.3883 13.72 14.77 14.35 14 14.35C13.23 14.35 12.6 13.72 12.6 12.95V5.71668ZM20.1833 12.8333C20.1833 16.3333 17.22 18.7833 14 18.7833C10.78 18.7833 7.81667 16.3333 7.81667 12.8333H5.83333C5.83333 16.8117 9.00667 20.1017 12.8333 20.6733V24.5H15.1667V20.6733C18.9933 20.1133 22.1667 16.8233 22.1667 12.8333H20.1833Z" fill="white"/>
</svg>
