<svg width="146" height="31" viewBox="0 0 146 31" fill="none" xmlns="http://www.w3.org/2000/svg">
<path d="M8.22495 23.224C6.69429 23.224 5.31295 22.8973 4.08095 22.244C2.86762 21.5907 1.90629 20.6573 1.19695 19.444C0.506287 18.2307 0.160953 16.812 0.160953 15.188C0.160953 13.5827 0.51562 12.1733 1.22495 10.96C1.93429 9.728 2.90495 8.78533 4.13695 8.132C5.36895 7.47867 6.75029 7.152 8.28095 7.152C9.81162 7.152 11.193 7.47867 12.425 8.132C13.657 8.78533 14.6276 9.728 15.337 10.96C16.0463 12.1733 16.401 13.5827 16.401 15.188C16.401 16.7933 16.037 18.212 15.309 19.444C14.5996 20.6573 13.6196 21.5907 12.369 22.244C11.137 22.8973 9.75562 23.224 8.22495 23.224ZM8.22495 19.08C9.13962 19.08 9.91429 18.744 10.549 18.072C11.2023 17.4 11.529 16.4387 11.529 15.188C11.529 13.9373 11.2116 12.976 10.577 12.304C9.96095 11.632 9.19562 11.296 8.28095 11.296C7.34762 11.296 6.57295 11.632 5.95695 12.304C5.34095 12.9573 5.03295 13.9187 5.03295 15.188C5.03295 16.4387 5.33162 17.4 5.92895 18.072C6.54495 18.744 7.31029 19.08 8.22495 19.08ZM28.4611 7.208C30.2904 7.208 31.7464 7.80533 32.8291 9C33.9304 10.176 34.4811 11.8 34.4811 13.872V23H29.7211V14.516C29.7211 13.4707 29.4504 12.6587 28.9091 12.08C28.3677 11.5013 27.6397 11.212 26.7251 11.212C25.8104 11.212 25.0824 11.5013 24.5411 12.08C23.9997 12.6587 23.7291 13.4707 23.7291 14.516V23H18.9411V7.376H23.7291V9.448C24.2144 8.75733 24.8677 8.216 25.6891 7.824C26.5104 7.41333 27.4344 7.208 28.4611 7.208ZM42.5963 2.28V23H37.8083V2.28H42.5963ZM62.0261 7.376L52.2261 30.42H47.0741L50.6581 22.468L44.3021 7.376H49.6501L53.2621 17.148L56.8461 7.376H62.0261Z" fill="black"/>
<path d="M75.9935 19.528H68.6575L67.4815 23H62.4695L69.5815 3.344H75.1255L82.2375 23H77.1695L75.9935 19.528ZM74.7615 15.832L72.3255 8.636L69.9175 15.832H74.7615ZM99.83 7.376V23H95.042V20.872C94.5567 21.5627 93.894 22.1227 93.054 22.552C92.2327 22.9627 91.318 23.168 90.31 23.168C89.1153 23.168 88.0607 22.9067 87.146 22.384C86.2313 21.8427 85.522 21.068 85.018 20.06C84.514 19.052 84.262 17.8667 84.262 16.504V7.376H89.022V15.86C89.022 16.9053 89.2927 17.7173 89.834 18.296C90.3753 18.8747 91.1033 19.164 92.018 19.164C92.9513 19.164 93.6887 18.8747 94.23 18.296C94.7713 17.7173 95.042 16.9053 95.042 15.86V7.376H99.83ZM102.317 15.16C102.317 13.5547 102.616 12.1453 103.213 10.932C103.829 9.71867 104.66 8.78533 105.705 8.132C106.751 7.47867 107.917 7.152 109.205 7.152C110.232 7.152 111.165 7.36667 112.005 7.796C112.864 8.22533 113.536 8.804 114.021 9.532V2.28H118.809V23H114.021V20.76C113.573 21.5067 112.929 22.104 112.089 22.552C111.268 23 110.307 23.224 109.205 23.224C107.917 23.224 106.751 22.8973 105.705 22.244C104.66 21.572 103.829 20.6293 103.213 19.416C102.616 18.184 102.317 16.7653 102.317 15.16ZM114.021 15.188C114.021 13.9933 113.685 13.0507 113.013 12.36C112.36 11.6693 111.557 11.324 110.605 11.324C109.653 11.324 108.841 11.6693 108.169 12.36C107.516 13.032 107.189 13.9653 107.189 15.16C107.189 16.3547 107.516 17.3067 108.169 18.016C108.841 18.7067 109.653 19.052 110.605 19.052C111.557 19.052 112.36 18.7067 113.013 18.016C113.685 17.3253 114.021 16.3827 114.021 15.188ZM124.681 5.752C123.841 5.752 123.15 5.50933 122.609 5.024C122.086 4.52 121.825 3.904 121.825 3.176C121.825 2.42933 122.086 1.81333 122.609 1.328C123.15 0.823998 123.841 0.571998 124.681 0.571998C125.502 0.571998 126.174 0.823998 126.697 1.328C127.238 1.81333 127.509 2.42933 127.509 3.176C127.509 3.904 127.238 4.52 126.697 5.024C126.174 5.50933 125.502 5.752 124.681 5.752ZM127.061 7.376V23H122.273V7.376H127.061ZM137.643 23.224C136.112 23.224 134.731 22.8973 133.499 22.244C132.286 21.5907 131.324 20.6573 130.615 19.444C129.924 18.2307 129.579 16.812 129.579 15.188C129.579 13.5827 129.934 12.1733 130.643 10.96C131.352 9.728 132.323 8.78533 133.555 8.132C134.787 7.47867 136.168 7.152 137.699 7.152C139.23 7.152 140.611 7.47867 141.843 8.132C143.075 8.78533 144.046 9.728 144.755 10.96C145.464 12.1733 145.819 13.5827 145.819 15.188C145.819 16.7933 145.455 18.212 144.727 19.444C144.018 20.6573 143.038 21.5907 141.787 22.244C140.555 22.8973 139.174 23.224 137.643 23.224ZM137.643 19.08C138.558 19.08 139.332 18.744 139.967 18.072C140.62 17.4 140.947 16.4387 140.947 15.188C140.947 13.9373 140.63 12.976 139.995 12.304C139.379 11.632 138.614 11.296 137.699 11.296C136.766 11.296 135.991 11.632 135.375 12.304C134.759 12.9573 134.451 13.9187 134.451 15.188C134.451 16.4387 134.75 17.4 135.347 18.072C135.963 18.744 136.728 19.08 137.643 19.08Z" fill="#4A87D6"/>
</svg>
